<svg xmlns="http://www.w3.org/2000/svg" xmlns:xlink="http://www.w3.org/1999/xlink" viewBox="0 0 976 1280" preserveAspectRatio="none"><defs><style>.cls-1,.cls-5{fill:#fff;}.cls-2{fill-opacity:0.7;fill:url(#radial-gradient);}.cls-3{fill-opacity:0.6;fill:url(#radial-gradient-2);}.cls-4{mask:url(#mask);}.cls-5{fill-opacity:0.3;}</style><radialGradient id="radial-gradient" cx="345.52" cy="781.47" r="1" gradientTransform="matrix(767.91, 1007.23, 4171.85, -3180.62, -3525396.09, 2137960.85)" gradientUnits="userSpaceOnUse"><stop offset="0" stop-color="#fff" stop-opacity="0.8"/><stop offset="1" stop-color="#fff" stop-opacity="0.1"/></radialGradient><radialGradient id="radial-gradient-2" cx="345.96" cy="780.97" r="1" gradientTransform="matrix(-531.89, 402, 735.82, 973.56, -389812.41, -899676.13)" gradientUnits="userSpaceOnUse"><stop offset="0.25" stop-color="#fff" stop-opacity="0.7"/><stop offset="1" stop-color="#fff" stop-opacity="0.1"/></radialGradient><mask id="mask" x="-2" y="-2" width="978" height="1284" maskUnits="userSpaceOnUse"><g id="path-1-inside-1_17_949" data-name="path-1-inside-1 17 949"><path class="cls-1" d="M413.38,748.64C312.22,451,95.64,360.21,0,352v928H972V1026.13C827.94,1057.64,514.54,1046.24,413.38,748.64Z"/><path class="cls-1" d="M548.76,203.15C363,223.17,248.87,76.06,215,0H976C763.65,0,780.92,178.11,548.76,203.15Z"/></g></mask></defs><path class="cls-2" d="M413.38,748.64C312.22,451,95.64,360.21,0,352v928H972V1026.13C827.94,1057.64,514.54,1046.24,413.38,748.64Z"/><path class="cls-3" d="M548.76,203.15C363,223.17,248.87,76.06,215,0H976C763.65,0,780.92,178.11,548.76,203.15Z"/><g class="cls-4"><path class="cls-5" d="M0,352l.17-2L-2,349.82V352ZM413.38,748.64l-1.89.64h0ZM972,1026.13h2v-2.48l-2.43.53ZM972,1280v2h2v-2ZM0,1280H-2v2H0ZM215,0V-2h-3.08L213.17.81ZM548.76,203.15l-.21-2ZM-.17,354c94.87,8.15,310.76,98.46,411.66,395.29l3.78-1.29C313.85,449.62,96.59,358.29.17,350ZM411.49,749.28C462.3,898.77,566.48,976.42,676,1012.7s224.15,31.2,296.46,15.39l-.86-3.91c-71.75,15.69-185.74,20.7-294.34-15.28S465.62,896.11,415.27,748ZM970,1026.13V1280h4V1026.13ZM972,1278H0v4H972ZM2,1280V352H-2v928ZM213.17.81c17.05,38.3,54.25,94.37,110.53,138.37s131.79,76,225.28,65.95l-.43-4C456.3,211.1,381.83,179.56,326.17,136S233.64,37,216.83-.81ZM549,205.13c116.75-12.59,170.88-63.76,222.19-111.48C796.82,69.8,821.64,46.93,853.25,30S923.22,2,976,2V-2C922.61-2,883.54,9.2,851.36,26.46s-57.31,40.45-82.91,64.26c-51.18,47.59-104.49,98-219.9,110.44ZM976-2H215V2H976Z"/></g></svg>