<svg xmlns="http://www.w3.org/2000/svg" xmlns:xlink="http://www.w3.org/1999/xlink" viewBox="0 0 1770 900" width="100%" height="100%" preserveAspectRatio="none"><defs><style>.cls-1,.cls-6{fill:#fff;}.cls-2{fill:url(#linear-gradient);}.cls-3{fill-opacity:0.7;fill:url(#radial-gradient);}.cls-4{fill-opacity:0.6;fill:url(#radial-gradient-2);}.cls-5{mask:url(#mask);}.cls-6{fill-opacity:0.3;}</style><linearGradient id="linear-gradient" x1="-224.35" y1="656.37" x2="2018.92" y2="-83.47" gradientTransform="matrix(1, 0, 0, -1, 0, 580)" gradientUnits="userSpaceOnUse"><stop offset="0" stop-color="#ffe8af"/><stop offset="0.38" stop-color="#f8d57e"/><stop offset="1" stop-color="#fff7e3"/></linearGradient><radialGradient id="radial-gradient" cx="-73.93" cy="830.2" r="1" gradientTransform="matrix(-383.17, 163.67, 507.92, 1189.08, -448286.9, -974635.9)" gradientUnits="userSpaceOnUse"><stop offset="0" stop-color="#fff" stop-opacity="0.8"/><stop offset="1" stop-color="#fff" stop-opacity="0.1"/></radialGradient><radialGradient id="radial-gradient-2" cx="-73.93" cy="830.07" r="1" gradientTransform="matrix(-1237.12, 1135.4, 2152.29, 2345.12, -1876603.86, -1863460.82)" gradientUnits="userSpaceOnUse"><stop offset="0.25" stop-color="#fff" stop-opacity="0.7"/><stop offset="1" stop-color="#fff" stop-opacity="0.1"/></radialGradient><mask id="mask" x="-2" y="-2" maskUnits="userSpaceOnUse"><g id="path-1-inside-1_48_981" data-name="path-1-inside-1 48 981"><path class="cls-1" d="M0,55A55,55,0,0,1,55,0H1715a55,55,0,0,1,55,55V524a55,55,0,0,1-55,55H55A55,55,0,0,1,0,524Z"/><path class="cls-1" d="M180.75,367.61C105.56,317.84,46,329.12,0,336.83V524a55,55,0,0,0,55,55H679C667.17,455.32,556.71,440.32,459.43,444.82S274.74,429.83,180.75,367.61Z"/><path class="cls-1" d="M1116.48,179.36C868,197.05,715.3,67.16,670,0H1688C1403.94,0,1427,157.26,1116.48,179.36Z"/><path class="cls-1" d="M1640.36,402.42c53.93-41.58,96.62-32.15,129.64-25.72V524a55,55,0,0,1-55,55H1283c8.49-103.32,87.71-115.84,157.48-112.08S1573,454.39,1640.36,402.42Z"/></g></mask></defs><path class="cls-2" d="M0,55A55,55,0,0,1,55,0H1715a55,55,0,0,1,55,55V524a55,55,0,0,1-55,55H55A55,55,0,0,1,0,524Z"/><path class="cls-3" d="M180.75,367.61C105.56,317.84,46,329.12,0,336.83V524a55,55,0,0,0,55,55H679C667.17,455.32,556.71,440.32,459.43,444.82S274.74,429.83,180.75,367.61Z"/><path class="cls-4" d="M1116.48,179.36C868,197.05,715.3,67.16,670,0H1688C1403.94,0,1427,157.26,1116.48,179.36Z"/><path class="cls-3" d="M1640.36,402.42c53.93-41.58,96.62-32.15,129.64-25.72V524a55,55,0,0,1-55,55H1283c8.49-103.32,87.71-115.84,157.48-112.08S1573,454.39,1640.36,402.42Z"/><g class="cls-5"><path class="cls-6" d="M55,578A54,54,0,0,1,1,524H-1a56,56,0,0,0,56,56Zm1714-54a54,54,0,0,1-54,54v2a56,56,0,0,0,56-56ZM0,336.83l-.33-2-1.67.28v1.69Zm180.75,30.78-1.1,1.67Zm278.68,77.21-.09-2h0ZM679,579v2h2.2l-.21-2.19ZM670,0V-2h-3.76l2.1,3.12Zm446.48,179.36-.14-2ZM1770,376.7h2v-1.64l-1.62-.32Zm-129.64,25.72,1.22,1.58h0ZM1283,579l-2-.16-.18,2.16H1283ZM55,2H1715V-2H55ZM1768,55V524h4V55Zm-53,522H55v4H1715ZM2,524V55H-2V524ZM1715,2a53,53,0,0,1,53,53h4a57,57,0,0,0-57-57ZM55-2A57,57,0,0,0-2,55H2A53,53,0,0,1,55,2ZM.33,338.8c46-7.69,104.8-18.84,179.32,30.48l2.2-3.33C106,315.72,45.78,327.14-.33,334.86Zm179.32,30.48c94.37,62.47,182.21,82.06,279.88,77.54l-.19-4C362.46,447.3,275.46,427.91,181.85,366Zm279.88,77.54c48.57-2.25,100.1.4,140.9,18.85,20.37,9.2,38,22.33,51.33,40.72s22.32,42.18,25.25,72.8l4-.38c-3-31.22-12.21-55.7-26-74.76s-32-32.59-52.92-42c-41.7-18.85-94-21.45-142.74-19.2ZM679,577H55v4H679ZM2,524V336.83H-2V524ZM668.34,1.12c45.67,67.69,199,198,448.28,180.24l-.28-4C868.67,195,716.6,65.5,671.66-1.12Zm448.28,180.24c155.75-11.09,227.94-56.11,296.6-98.26,34.29-21,67.57-41.29,110-56.3S1617.18,2,1688,2V-2c-71.21,0-123.26,9.86-166.13,25s-76.47,35.62-110.74,56.66c-68.43,42-140,86.66-294.79,97.68ZM1688-2H670V2H1688Zm82.38,376.74c-16.46-3.21-35.67-7.24-57.55-5.17s-46.44,10.26-73.69,31.27l2.44,3.16c26.68-20.57,50.48-28.45,71.63-30.45s39.86,1.89,56.41,5.12Zm-131.24,26.1c-67,51.67-129.25,67.81-198.55,64.08l-.22,4c70.24,3.79,133.41-12.64,201.21-64.91Zm-198.55,64.08c-35-1.88-72.68.28-102.76,16.12-30.27,15.93-52.53,45.55-56.82,97.8l4,.32c4.2-51.06,25.79-79.37,54.7-94.59,29.09-15.31,65.88-17.53,100.68-15.66ZM1283,581h432v-4H1283Zm489-57V376.7h-4V524Z"/></g></svg>