<svg width="52" height="45" viewBox="0 0 42 35" fill="none" xmlns="http://www.w3.org/2000/svg">
<path d="M33.9024 18.8596L42 26.9298L33.9024 35L31.4699 32.5757L35.4146 28.6443H32.6862C28.652 28.6443 24.9516 25.7262 21.1565 22.2098C22.0133 21.4245 22.8493 20.6324 23.6682 19.854C26.8783 22.815 29.9216 25.2153 32.6862 25.2153H35.4146L31.4699 21.2839L33.9024 18.8596ZM32.6862 9.78471H35.4146L31.4699 13.7161L33.9024 16.1404L42 8.0702L33.9024 0L31.4699 2.42432L35.4146 6.35569H32.6862C27.8916 6.35569 23.5702 10.4654 18.9975 14.8185C14.5092 19.0859 9.86778 23.5008 5.16097 23.5008H0V26.9298H5.16097C11.2458 26.9298 16.393 22.0332 21.3733 17.2977C25.4333 13.4349 29.2713 9.78471 32.6862 9.78471ZM13.4925 15.2471C14.3527 14.4773 15.2042 13.6801 16.0403 12.8863C12.6685 10.1413 9.11256 8.0702 5.16097 8.0702H0V11.4992H5.16097C7.96854 11.4992 10.752 13.0748 13.4925 15.2471Z" fill="#353A46"></path>
</svg>
