<svg xmlns="http://www.w3.org/2000/svg" xmlns:xlink="http://www.w3.org/1999/xlink" viewBox="0 0 977 1280" preserveAspectRatio="none"><defs><style>.cls-1, .cls-7 {
  fill: #fff;
}

.cls-2 {
  fill: #f8d57e;
}

.cls-3 {
  fill: url("#linear-gradient");
}

.cls-4 {
  fill-opacity: .7;
  fill: url("#radial-gradient");
}

.cls-5 {
  fill-opacity: .6;
  fill: url("#radial-gradient-2");
}

.cls-6 {
  -webkit-mask: url("#mask");
  mask: url("#mask");
}

.cls-7 {
  fill-opacity: .3;
}

</style><linearGradient id="linear-gradient" x1="-56.81" y1="470.86" x2="1035.74" y2="809.29" gradientTransform="matrix(1, 0, 0, -1, 0, 1279.46)" gradientUnits="userSpaceOnUse"><stop offset="0" stop-color="#ffe8af"></stop><stop offset="0.38" stop-color="#f8d57e"></stop><stop offset="0.92" stop-color="#ffe6a9"></stop></linearGradient><radialGradient id="radial-gradient" cx="346.52" cy="781.47" r="1" gradientTransform="matrix(768.7, 1007.23, 4172.98, -3184.74, -3527320.68, 2140175.08)" gradientUnits="userSpaceOnUse"><stop offset="0" stop-color="#fff" stop-opacity="0.8"></stop><stop offset="1" stop-color="#fff" stop-opacity="0.1"></stop></radialGradient><radialGradient id="radial-gradient-2" cx="346.96" cy="780.97" r="1" gradientTransform="matrix(-531.89, 402, 735.82, 973.56, -389278.52, -900078.13)" gradientUnits="userSpaceOnUse"><stop offset="0.25" stop-color="#fff" stop-opacity="0.7"></stop><stop offset="1" stop-color="#fff" stop-opacity="0.1"></stop></radialGradient><mask id="mask" x="-1" y="-2" width="980" height="1284" maskUnits="userSpaceOnUse"><g id="path-1-inside-1_9_946" data-name="path-1-inside-1 9 946"><path class="cls-1" d="M0,0H977V1280H0Z"></path><path class="cls-1" d="M0,0H975V1280H0Z"></path><path class="cls-1" d="M414.38,748.64C313.22,451,96.64,360.21,1,352v928H973V1026.13C828.94,1057.64,515.54,1046.24,414.38,748.64Z"></path><path class="cls-1" d="M549.76,203.15C364,223.17,249.87,76.06,216,0H977C764.65,0,781.92,178.11,549.76,203.15Z"></path></g></mask></defs><path class="cls-2" d="M0,0H977V1280H0Z"></path><path class="cls-3" d="M0,0H975V1280H0Z"></path><path class="cls-4" d="M414.38,748.64C313.22,451,96.64,360.21,1,352v928H973V1026.13C828.94,1057.64,515.54,1046.24,414.38,748.64Z"></path><path class="cls-5" d="M549.76,203.15C364,223.17,249.87,76.06,216,0H977C764.65,0,781.92,178.11,549.76,203.15Z"></path><g class="cls-6"><path class="cls-7" d="M1,1280V0H-1V1280ZM977,0h2V-2h-2Zm0,1280v2h2v-2ZM975,0h2V-2h-2Zm0,1280v2h2v-2ZM1,352l.17-2L-1,349.82V352ZM414.38,748.64l-1.89.64h0ZM973,1026.13h2v-2.48l-2.43.53ZM973,1280v2h2v-2ZM1,1280H-1v2H1ZM216,0V-2h-3.08L214.17.81ZM549.76,203.15l-.21-2ZM0,2H977V-2H0ZM975,0V1280h4V0Zm2,1278H0v4H977ZM0,2H975V-2H0ZM973,0V1280h4V0Zm2,1278H0v4H975ZM.83,354c94.87,8.15,310.76,98.46,411.66,395.29l3.78-1.29C314.85,449.62,97.59,358.29,1.17,350ZM412.49,749.28C463.3,898.77,567.48,976.42,677,1012.7s224.15,31.2,296.46,15.39l-.86-3.91c-71.75,15.69-185.74,20.7-294.34-15.28S466.62,896.11,416.27,748ZM971,1026.13V1280h4V1026.13ZM973,1278H1v4H973ZM3,1280V352H-1v928ZM214.17.81c17.05,38.3,54.25,94.37,110.53,138.37s131.79,76,225.28,65.95l-.43-4C457.3,211.1,382.83,179.56,327.17,136S234.64,37,217.83-.81ZM550,205.13c116.75-12.59,170.88-63.76,222.19-111.48C797.82,69.8,822.64,46.93,854.25,30S924.22,2,977,2V-2C923.61-2,884.54,9.2,852.36,26.46s-57.31,40.45-82.91,64.26c-51.18,47.59-104.49,98-219.9,110.44ZM977-2H216V2H977Z"></path></g></svg>